<?xml version="1.0" standalone="no"?>
<!DOCTYPE svg PUBLIC "-//W3C//DTD SVG 20010904//EN"
 "http://www.w3.org/TR/2001/REC-SVG-20010904/DTD/svg10.dtd">
<svg version="1.0" xmlns="http://www.w3.org/2000/svg"
 width="256.000000pt" height="256.000000pt" viewBox="0 0 256.000000 256.000000"
 preserveAspectRatio="xMidYMid meet">
<metadata>
Created by potrace 1.14, written by Peter Selinger 2001-2017
</metadata>
<g transform="translate(0.000000,256.000000) scale(0.100000,-0.100000)"
fill="#000000" stroke="none">
<path d="M492 2425 c-42 -18 -69 -50 -82 -97 -7 -24 -10 -386 -10 -1062 0
-1126 -4 -1055 60 -1109 17 -15 49 -28 73 -32 23 -3 375 -5 783 -3 l740 3 36
24 c71 49 68 10 68 898 0 438 -1 797 -2 799 -2 2 -136 136 -298 299 l-294 295
-521 0 c-431 -1 -526 -3 -553 -15z m1513 -555 c-8 -3 -95 -4 -194 -2 l-180 3
-21 29 c-21 29 -23 74 -20 363 l0 39 215 -214 c140 -139 209 -215 200 -218z
m-1291 328 c18 -26 20 -65 6 -102 -7 -20 -17 -26 -39 -26 -15 0 -34 6 -40 14
-30 35 -22 112 12 126 34 14 45 12 61 -12z m106 -44 c0 -54 3 -65 14 -61 10 4
13 1 9 -9 -6 -16 -73 -20 -73 -4 0 6 5 10 10 10 15 0 13 97 -2 103 -10 4 -9 8
2 16 33 23 40 13 40 -55z m144 50 c23 -22 25 -96 4 -121 -18 -22 -66 -16 -79
9 -19 35 -13 90 12 111 26 21 43 22 63 1z m132 8 c22 -15 34 -52 28 -89 -7
-43 -17 -53 -57 -53 -31 0 -47 28 -47 82 0 50 42 83 76 60z m122 -54 c0 -35 6
-64 12 -66 23 -8 8 -22 -24 -22 -36 0 -56 14 -32 23 19 8 19 86 0 94 -28 10
-12 27 32 32 6 1 11 -24 12 -61z m115 -6 c0 -46 3 -62 13 -62 8 0 14 -4 14
-10 0 -5 -18 -10 -40 -10 -39 0 -54 13 -26 23 17 7 12 87 -7 99 -9 6 -8 10 3
18 33 22 44 8 43 -58z m115 -389 c12 -20 4 -40 -143 -393 -59 -140 -110 -265
-115 -277 -14 -33 -45 -47 -64 -27 -22 21 -21 30 15 115 17 41 55 135 86 209
30 74 58 140 61 145 4 6 7 12 7 15 0 3 16 41 34 85 18 44 39 95 47 113 10 24
19 32 38 32 14 0 29 -8 34 -17z m-372 -159 c5 -20 1 -29 -17 -42 -25 -18 -156
-96 -201 -119 -16 -8 -28 -18 -28 -22 0 -4 42 -31 93 -61 50 -29 94 -57 95
-62 2 -4 7 -6 11 -4 3 3 17 -4 30 -13 18 -14 22 -24 18 -43 -9 -36 -39 -40
-81 -12 -19 13 -37 24 -40 24 -2 0 -54 29 -115 65 -117 70 -138 94 -110 135
20 29 279 178 311 179 22 1 29 -5 34 -25z m511 -3 c26 -16 92 -55 145 -86 149
-86 146 -111 -24 -206 -62 -34 -125 -71 -140 -81 -40 -27 -76 -24 -84 8 -8 30
5 43 83 84 27 13 71 39 100 57 29 18 57 33 63 33 24 0 -3 19 -125 89 -104 60
-125 76 -125 96 0 43 41 45 107 6z m-532 -729 c13 -15 39 -46 59 -68 l35 -39
463 0 463 0 2 -256 2 -255 -25 -27 -25 -27 -755 3 -755 2 -19 25 c-18 23 -19
46 -19 347 l0 323 131 -1 c72 0 132 1 133 3 2 2 67 2 145 1 l141 -3 24 -28z"/>
<path d="M659 2188 c-16 -55 -2 -102 27 -91 22 8 15 87 -8 91 -10 2 -18 2 -19
0z"/>
<path d="M915 2175 c-3 -8 -7 -21 -9 -27 -5 -18 11 -58 24 -58 16 0 29 42 23
73 -6 29 -31 37 -38 12z"/>
<path d="M1056 2184 c-11 -29 -6 -82 8 -87 20 -8 34 13 31 43 -2 14 -4 30 -4
36 -1 19 -29 24 -35 8z"/>
<path d="M1205 652 l-40 -3 1 -172 c1 -95 2 -175 3 -178 1 -4 39 -5 86 -4 99
3 138 21 167 77 43 82 22 214 -40 254 -28 18 -114 31 -177 26z m135 -87 c26
-23 36 -98 20 -144 -17 -46 -36 -60 -80 -61 l-36 0 -1 107 c-1 58 0 110 2 114
9 13 75 2 95 -16z"/>
<path d="M1502 652 l-22 -3 2 -177 3 -177 25 -1 c46 -1 49 4 47 72 -1 35 0 64
3 65 3 0 29 2 58 4 92 8 133 57 118 140 -9 48 -46 69 -136 75 -41 3 -85 4 -98
2z m154 -87 c13 -18 8 -45 -10 -57 -14 -10 -86 -10 -87 0 0 4 -2 18 -4 32 -1
14 2 31 8 38 14 18 77 9 93 -13z"/>
<path d="M845 473 l0 -178 38 -1 c41 -2 41 -2 38 89 -1 26 3 48 9 48 39 5 45
3 44 -18 0 -12 2 -20 6 -18 3 2 18 -20 32 -49 25 -51 27 -52 65 -50 21 1 39 2
40 3 1 1 -13 31 -32 69 -39 75 -42 87 -20 96 27 10 45 69 34 109 -17 62 -47
77 -158 77 l-97 0 1 -177z m176 96 c25 -40 -6 -73 -64 -67 -30 3 -32 6 -35 44
l-3 41 47 -2 c27 -1 50 -8 55 -16z"/>
</g>
</svg>
